<svg xmlns="http://www.w3.org/2000/svg" viewBox="0 0 512 512" width="512" height="512">
  <defs>
    <radialGradient id="bg" cx="50%" cy="38%" r="75%">
      <stop offset="0%" stop-color="#1e2d52"/>
      <stop offset="100%" stop-color="#0d1b2e"/>
    </radialGradient>
  </defs>
  <rect width="512" height="512" fill="url(#bg)"/>
  <!-- aro de cancha -->
  <circle cx="256" cy="256" r="170" fill="none" stroke="#00D9B5" stroke-width="10" opacity="0.55"/>
  <!-- balón -->
  <circle cx="256" cy="256" r="120" fill="#ffffff"/>
  <g fill="#0d1b2e">
    <polygon points="256,200 290,224 277,264 235,264 222,224"/>
    <polygon points="256,168 235,200 256,200"/>
    <polygon points="277,264 312,250 322,288 296,308"/>
    <polygon points="235,264 200,250 190,288 216,308"/>
    <polygon points="256,330 220,310 235,288 277,288 292,310"/>
  </g>
  <path d="M256 136 a120 120 0 0 1 0 240 a120 120 0 0 1 0 -240"
        fill="none" stroke="#0d1b2e" stroke-width="4" opacity="0.15"/>
</svg>
